<?xml version="1.0" encoding="UTF-8"?>
<svg width="35px" height="42px" viewBox="0 0 35 42" version="1.1" xmlns="http://www.w3.org/2000/svg" xmlns:xlink="http://www.w3.org/1999/xlink">
    <!-- Generator: sketchtool 61 (101010) - https://sketch.com -->
    <title>4D5A40CB-2EE7-4868-84DC-727612877715</title>
    <desc>Created with sketchtool.</desc>
    <g id="Asset-Artboard-Page" stroke="none" stroke-width="1" fill="none" fill-rule="evenodd">
        <g id="icons/-library">
            <g id="library">
                <g id="target" fill="#FFFFFF" fill-opacity="0" fill-rule="nonzero">
                    <rect id="Rectangle" x="0" y="0" width="34.5454559" height="41.1383095"></rect>
                </g>
                <g id="live-area" transform="translate(8.636364, 10.284577)" fill="#FFFFFF" fill-opacity="0" fill-rule="nonzero">
                    <rect id="Rectangle" x="0" y="0" width="17.272728" height="20.5691547"></rect>
                </g>
                <g id="icon" transform="translate(11.515152, 11.998674)" fill="#3C4046">
                    <path d="M10.7605464,0.0428524063 C11.0888883,0.0428524063 11.3484698,0.104555453 11.515152,0.395758463 C11.6818341,0.686961473 11.6818341,1.06998723 11.515152,1.36119024 C11.3484698,1.65239325 11.0508749,1.71409629 10.7605464,1.71409629 L10.7605464,1.71409629 L2.51893949,1.71409629 C2.11641554,1.73520111 1.75779586,2.02321882 1.59053036,2.45972818 C1.39636306,2.95696123 1.39636306,3.53089324 1.59053036,4.02812629 C1.74439481,4.4840719 2.10682712,4.79188037 2.51893949,4.81661058 L2.51893949,4.81661058 L10.616607,4.81661058 C11.2248105,4.81646572 11.5030992,5.22275483 11.515152,5.94026385 L11.515152,5.94026385 L11.515152,16.2839148 C11.515152,16.7572494 11.1929326,17.1409629 10.795455,17.1409629 L10.795455,17.1409629 L0.719696998,17.1409629 C0.322219321,17.1409629 0,16.7572494 0,16.2839148 L0,16.2839148 L0,3.33391729 C0.000238361438,2.80818017 0.0934208059,2.28839243 0.273484859,1.80837159 C0.668990044,0.748949033 1.54545172,0.0598191439 2.51893949,0.0428524063 L2.51893949,0.0428524063 Z M1.439394,6.21359866 L1.439394,15.4268659 L10.075758,15.4268659 L10.075758,6.49642454 L2.51174253,6.49642454 C2.14096706,6.49953768 1.774392,6.40285558 1.439394,6.21359866 L1.439394,6.21359866 Z M8.13257596,7.93626557 C8.51586913,7.96817942 8.81051448,8.35301243 8.80189416,8.81045462 L8.80189416,8.81045462 L8.80189416,12.1786536 C8.80282281,12.6295159 8.51025527,13.0041426 8.13257596,13.0357017 L8.13257596,13.0357017 L3.52651525,13.0357017 C3.15168127,12.9998796 2.86318892,12.6264558 2.86439026,12.1786536 L2.86439026,12.1786536 L2.86439026,8.79331366 C2.86318892,8.34551142 3.15168127,7.97208763 3.52651525,7.93626557 L3.52651525,7.93626557 Z M7.47045493,9.69321416 L4.19583345,9.69321416 L4.19583345,11.3216056 L7.47045493,11.3216056 L7.47045493,9.69321416 Z M2.35144191,2.79549325 C2.51406586,2.50429025 2.80615926,2.36427818 3.08767505,2.44258721 L3.08767505,2.44258721 L10.7273338,2.44258721 C11.0524778,2.44258721 11.300943,2.50429025 11.463567,2.79549325 C11.6261909,3.08669625 11.6261909,3.46972199 11.463567,3.76092499 C11.300943,4.05212799 11.01954,4.11383103 10.7273338,4.11383103 L10.7273338,4.11383103 L3.08767505,4.11383103 C2.80615926,4.19214006 2.51406586,4.05212799 2.35144191,3.76092499 C2.18881795,3.46972199 2.18881795,3.08669625 2.35144191,2.79549325 Z" id="ðŸ­-Icon"></path>
                </g>
            </g>
        </g>
    </g>
</svg>